<svg width="100" height="101" viewBox="0 0 100 101" fill="none" xmlns="http://www.w3.org/2000/svg">
<path d="M0.546753 50.4613C0.546753 23.1386 22.7796 0.905762 50.1023 0.905762C77.425 0.905762 99.6578 23.1386 99.6578 50.4613C99.6578 77.7839 77.425 100.017 50.1023 100.017C22.7796 100.017 0.546753 77.7839 0.546753 50.4613ZM96.0877 50.4613C96.0877 25.1058 75.4577 4.47592 50.1023 4.47592C24.7469 4.47592 4.11697 25.1058 4.11697 50.4613C4.11697 75.8167 24.7469 96.4466 50.1023 96.4466C75.4577 96.4466 96.0877 75.8167 96.0877 50.4613Z" fill="#478BF9"/>
<path d="M98.1434 49.2644H76.4414V53.5423H98.1434V49.2644Z" fill="#478BF9"/>
<path d="M23.4207 49.2644H1.71863V53.5423H23.4207V49.2644Z" fill="#478BF9"/>
<path d="M52.4107 78.2419H48.1328V99.944H52.4107V78.2419Z" fill="#478BF9"/>
<path d="M52.4107 2.86255H48.1328V24.5645H52.4107V2.86255Z" fill="#478BF9"/>
<path d="M76.7858 23.2522C61.9431 8.40944 37.8678 8.40944 23.0147 23.2522C8.17201 38.0949 8.17201 62.1701 23.0147 77.0232C37.8574 91.8659 61.9326 91.8659 76.7858 77.0232C91.6285 62.1805 91.6285 38.1053 76.7858 23.2522ZM57.2487 26.4684C61.5787 27.8112 65.4611 30.3196 68.4796 33.7337L69.0625 34.3894L68.2091 34.5872C65.9504 35.118 63.5356 35.5552 61.0375 35.8778L60.5899 35.9403L60.465 35.5031C60.0487 34.0771 59.5594 32.7032 58.9974 31.4333C58.3 29.8408 57.5194 28.446 56.6659 27.2699L55.7291 25.9896L57.2487 26.458V26.4684ZM39.8767 48.9511L39.8976 48.4098C40.0016 45.1207 40.3659 41.9773 40.9905 39.0837L41.0842 38.6257L41.5525 38.6673C47.0274 39.1461 52.8771 39.1253 58.3209 38.6153L58.7892 38.5737L58.8933 39.0317C59.5282 41.9565 59.8925 45.1103 59.9862 48.4098V48.9511H39.8871H39.8767ZM59.9862 51.3659V51.9071C59.8717 55.2067 59.5074 58.3605 58.8725 61.2853L58.7684 61.7433L58.3 61.7016C52.8563 61.1916 47.0067 61.1812 41.5317 61.6496L41.0633 61.6912L40.9696 61.2332C40.3451 58.3396 39.9808 55.2067 39.8767 51.9071L39.8559 51.3659H59.9654H59.9862ZM49.9315 25.5629C52.9604 25.5629 56.0413 29.4036 57.9669 35.5968L58.1647 36.2213L57.509 36.2734C54.9484 36.4919 52.3046 36.6064 49.6504 36.6064C47.1836 36.6064 44.7271 36.5127 42.3331 36.315L41.6774 36.2629L41.8752 35.628C43.8008 29.4141 46.8922 25.5525 49.9315 25.5525V25.5629ZM31.2792 33.8481C34.3185 30.3821 38.2322 27.832 42.6142 26.4789L44.1443 26.0105L43.1971 27.3011C42.3436 28.4669 41.5525 29.872 40.8656 31.4542C40.3139 32.7032 39.8143 34.0979 39.3771 35.5968L39.2522 36.0236L38.8047 35.9715C36.2858 35.6593 33.8501 35.2429 31.5602 34.7121L30.6963 34.5143L31.2792 33.8481ZM25.2006 48.389C25.492 44.3297 26.7931 40.3744 28.9685 36.9291L29.1767 36.6064L29.5514 36.7001C32.216 37.3767 35.0887 37.9179 38.1072 38.3031L38.6694 38.3759L38.5548 38.938C37.9303 41.9565 37.5764 45.1519 37.4828 48.4411V48.9511H25.1693L25.211 48.389H25.2006ZM29.1767 63.7105L28.9685 63.3878C26.7931 59.953 25.492 55.9873 25.2006 51.9279L25.1589 51.3659H37.4619V51.8759C37.566 55.165 37.9303 58.3709 38.5445 61.379L38.6589 61.941L38.0968 62.0139C35.0887 62.399 32.2056 62.9403 29.541 63.6169L29.1663 63.7105H29.1767ZM42.6142 73.8485C38.2322 72.4954 34.3185 69.9453 31.2792 66.4792L30.6963 65.8131L31.5602 65.6153C33.8501 65.0949 36.2858 64.6681 38.8047 64.3558L39.2522 64.3038L39.3771 64.7306C39.8143 66.2294 40.3139 67.6242 40.8656 68.8732C41.5629 70.4657 42.3436 71.8605 43.1971 73.0367L44.1443 74.3273L42.6142 73.8589V73.8485ZM49.9315 74.7541C46.8922 74.7541 43.8008 70.8925 41.8752 64.6785L41.6774 64.0436L42.3331 63.9916C47.2981 63.596 52.5857 63.6064 57.509 64.0332L58.1647 64.0852L57.9669 64.7098C56.0309 70.8925 52.95 74.7437 49.9315 74.7437V74.7541ZM68.4796 66.5833C65.4611 69.9973 61.5683 72.5058 57.2487 73.8485L55.7291 74.3169L56.6659 73.0367C57.5194 71.8709 58.3 70.4657 58.9974 68.8732C59.549 67.5929 60.0487 66.2294 60.465 64.8034L60.5899 64.3663L61.0375 64.4287C63.5356 64.7514 65.9504 65.1885 68.2091 65.7194L69.0625 65.9275L68.4796 66.5833ZM74.652 51.9279C74.3606 56.0289 73.0387 60.0363 70.8112 63.5127L70.603 63.8354L70.2283 63.7418C67.595 63.0444 64.7325 62.4927 61.7349 62.0868L61.1728 62.0139L61.2873 61.4623C61.9118 58.4438 62.2761 55.2275 62.3698 51.8863V51.3763H74.6832L74.6416 51.9383L74.652 51.9279ZM62.3906 48.9511V48.4411C62.2865 45.0999 61.9222 41.8732 61.2977 38.8651L61.1832 38.3135L61.7453 38.2406C64.743 37.8347 67.5949 37.283 70.2387 36.5856L70.6134 36.492L70.8216 36.8146C73.049 40.2911 74.3813 44.288 74.6624 48.3994L74.704 48.9615H62.401L62.3906 48.9511Z" fill="#478BF9"/>
</svg>
